<svg xmlns="http://www.w3.org/2000/svg" viewBox="0 0 100 100" fill-rule="evenodd"><path d="M.2 53.2C1.8 79.3 23.5 100 50 100c12.6 0 24.2-4.7 33-12.4L67.9 72.5c-4.9 3.9-11.1 6.2-17.8 6.2-14.7 0-26.9-11.1-28.4-25.5H.2zM83 12.5C75 5.4 64.6.9 53.3.2v21.5c5.5.6 10.5 2.7 14.6 6L83 12.5zM87.6 83A49.87 49.87 0 0 0 100 50c0-4.3-.5-8.4-1.6-12.4l-20.3 6.6a27.84 27.84 0 0 1 .6 5.8c0 6.7-2.3 12.9-6.2 17.8L87.6 83z" fill="#252525"/><path d="M46.8.2C21.8 1.8 1.8 21.8.2 46.8h21.5c1.5-13.2 12-23.6 25.1-25.1V.2zm49.7 31.3c-2.1-5.3-5.2-10.2-8.9-14.5L72.4 32.2c1.5 1.8 2.7 3.8 3.7 6l20.4-6.7zM48.7 52.2c-4.7-1.6-7.9-3.8-7.9-8.1 0-3.7 2.4-6.6 6.5-7.7.5-.1.8-.7.8-1.2v-.8c0-.6.6-1.2 1.2-1.2h2c.6 0 1.2.6 1.2 1.2v.4c0 .6.5 1.1 1 1.1 1.9.2 3.3.6 4.5 1 .5.2.8.8.7 1.3L58 41c-.1.3-.3.6-.6.7s-.6.2-.9 0c-1.2-.5-2.9-1-5.2-1-2.9 0-3.8 1.3-3.8 2.5 0 1.4 1.6 2.4 5.3 3.8 5.2 1.9 7.3 4.3 7.3 8.4 0 3.7-2.4 6.9-6.9 8-.5.1-.8.6-.8 1.1v1.2c0 .6-.6 1.2-1.2 1.2h-2c-.6 0-1.2-.6-1.2-1.2V65c0-.6-.5-1-1.1-1.1-2.1-.2-4.2-.8-5.6-1.4-.5-.2-.8-.8-.6-1.3l.8-3c.1-.3.3-.6.6-.7s.6-.2.9 0c1.7.8 3.8 1.4 6.1 1.4 2.5 0 4.3-1 4.3-2.8 0-1.7-1.4-2.8-4.7-3.9z" fill="#01b5f0"/></svg>