<svg xmlns="http://www.w3.org/2000/svg" viewBox="0 0 100 100" fill-rule="evenodd"><path d="M91.3 59.4h-21v10.9h21.1a3.12 3.12 0 0 0 3.1-3.1v-4.7c0-1.7-1.4-3.1-3.2-3.1zm0 15.6h-21v10.9h21.1a3.12 3.12 0 0 0 3.1-3.1v-4.7c0-1.7-1.4-3.1-3.2-3.1z" fill="#01b5f0"/><path d="M22.7 40.6V25.8c0-7.1 2.9-13.5 7.5-18.2C34.9 3 41.3.1 48.4.1S62 3 66.6 7.6c4.7 4.7 7.5 11.1 7.5 18.2v14.8H61.7V25.8a13.22 13.22 0 0 0-3.9-9.4 13.22 13.22 0 0 0-9.4-3.9 13.4 13.4 0 0 0-9.4 3.9 13.22 13.22 0 0 0-3.9 9.4v14.8H22.7zm61.1 4.7H13.1c-2.2 0-4 1.4-4.5 3.5-1.9 7.3-3 15.4-3 23.8s1.1 16.5 3 23.8c.6 2.1 2.4 3.5 4.5 3.5h70.7c2.2 0 4-1.4 4.5-3.5.5-1.9 1-3.9 1.3-5.9H67.9a2.26 2.26 0 0 1-2.3-2.3V57a2.26 2.26 0 0 1 2.3-2.3h21.7c-.4-2-.8-4-1.3-5.9-.5-2.1-2.3-3.5-4.5-3.5zM35 73.9c-4.5-1.5-7.7-3.7-7.7-7.9 0-3.6 2.3-6.4 6.3-7.5.5-.1.8-.6.8-1.1v-1.9c0-.6.6-1.2 1.2-1.2h1.9c.6 0 1.2.6 1.2 1.2V57c0 .6.4 1.1 1 1.1 1.8.1 3.2.5 4.3 1 .5.2.8.8.6 1.3l-.6 2.7c-.1.3-.3.5-.6.7-.3.1-.6.2-.9 0-1.1-.5-2.8-1-5-1-2.8 0-3.6 1.2-3.6 2.5 0 1.4 1.5 2.3 5.2 3.7 5.1 1.8 7.1 4.2 7.1 8.1 0 3.6-2.3 6.7-6.6 7.7-.5.1-.8.6-.8 1.1v2.3c0 .6-.6 1.2-1.2 1.2h-1.9c-.6 0-1.2-.6-1.2-1.2v-1.9c0-.6-.5-1-1-1-2.1-.2-4-.7-5.4-1.4-.5-.2-.7-.7-.6-1.3l.7-2.9c.1-.3.3-.6.6-.7s.6-.1.9 0c1.6.7 3.7 1.3 5.9 1.3 2.5 0 4.1-1 4.1-2.7-.2-1.6-1.5-2.6-4.7-3.7z" fill="#252525"/></svg>