<svg xmlns="http://www.w3.org/2000/svg" viewBox="0 0 100 100" fill-rule="evenodd"><path d="M22.6 62.5h3.1v11.3a12.45 12.45 0 0 1 9 9h30.5a12.45 12.45 0 0 1 9-9V62.5h3.1a3.12 3.12 0 0 1 3.1 3.1v20.3a3.12 3.12 0 0 1-3.1 3.1H22.6a3.12 3.12 0 0 1-3.1-3.1V65.6a3.12 3.12 0 0 1 3.1-3.1zm-3.1 31.2h61v3.1a3.12 3.12 0 0 1-3.1 3.1H22.6a3.12 3.12 0 0 1-3.1-3.1v-3.1zM50 63.1c4.6 0 8.4 3.8 8.4 8.4s-3.8 8.4-8.4 8.4-8.4-3.8-8.4-8.4a8.32 8.32 0 0 1 8.4-8.4z" fill="#01b5f0"/><path d="M85.1 63.7c0-3.3-2.9-5.9-6.3-5.9H21c-3.3 0-6.3 2.6-6.3 5.9v18.6a190.59 190.59 0 0 1-10.9-1.5c-2.3-.4-4-2.3-4-4.6v-68c0-2.3 1.7-4.3 4-4.6C18.6 1.2 34.1 0 50 0s31.3 1.2 46 3.5c2.3.4 4 2.3 4 4.6v68c0 2.3-1.7 4.3-4 4.6a190.59 190.59 0 0 1-10.9 1.5V63.7zm-9.7-50.1c1.1 0 2 .9 2 2v19.5c0 1.1-.9 2-2 2H24.6c-1.1 0-1.9-.9-1.9-2V15.6c0-1.1.9-2 1.9-2h50.8zm-29.3 34c0 1.1-.9 2-2 2h-3.9c-1.1 0-1.9-.9-1.9-2v-3.9c0-1.1.9-2 1.9-2h3.9c1.1 0 2 .9 2 2v3.9zm15.6 0c0 1.1-.9 2-2 2h-3.9c-1.1 0-1.9-.9-1.9-2v-3.9c0-1.1.9-2 1.9-2h3.9c1.1 0 2 .9 2 2v3.9zm15.6 0c0 1.1-.9 2-2 2h-3.9c-1.1 0-1.9-.9-1.9-2v-3.9c0-1.1.9-2 1.9-2h3.9c1.1 0 2 .9 2 2v3.9zm-46.9 0c0 1.1-.9 2-2 2h-3.9c-1.1 0-1.9-.9-1.9-2v-3.9c0-1.1.9-2 1.9-2h3.9c1.1 0 2 .9 2 2v3.9z" fill="#252525"/></svg>