<svg xmlns="http://www.w3.org/2000/svg" xmlns:xlink="http://www.w3.org/1999/xlink" x="0px" y="0px" viewBox="0 0 100 100" style="enable-background:new 0 0 100 100;" xml:space="preserve">
<g>
	<path style="fill:#252525;" d="M73,26.3c-4.1-0.4-7.6,2.3-8,6c-0.3,3.7,2.7,6.9,6.8,7.3c4.1,0.4,7.6-2.3,8-6   C80.1,30,77.1,26.7,73,26.3L73,26.3z M56.6,12.8c-0.7,2.7-2.4,5-4.9,6.3l2.4,15.6l0,6.2l3.2-28H56.6L56.6,12.8z M87.4,17.2   c-2.8-1.4-4.7-4.2-5.2-7.2L70.1,7.8c-1.4,2.5-3.7,4.3-6.5,4.9l-4.2,37.2c0,0.4-0.1,0.7-0.3,1.1c6.6,1.8,14.5,0.6,22.6-2.1   c1-0.3,1.1-2.2,1.3-3L87.4,17.2L87.4,17.2z M44,10.2c-0.3-1.9,1.2-3.6,3.3-3.6l10.7,0l0.4-3.9c0.2-1.8,1.9-3,3.7-2.7l30,5.4   C94,5.8,95.2,7.2,95,9l-5.6,36.5c4.3,1.3,6.5,5.4,4.5,10.5c4.8,1,5.5,8.5,2.2,11.6c3.6,2.4,2.9,8.8-1.5,11.5c1.6,2.8,1.6,8-4.3,9.7   c0,0-20,4.9-24.1,5.3c-8.3,0.5-10.7-1.3-22.1-1.8l-7.2-36.4l4.2-6.6c1.9-3,4-3.5,7-4.4l0-9.5L44,10.2L44,10.2z"></path>
	<path style="fill:#01B5F0;" d="M31.7,54.8l-30,5.3l8.6,39.9l30.6,0L31.7,54.8z M24,93.4c-2.6,0-4.8-2.1-4.9-4.7   c0-2.6,2-4.7,4.7-4.7c2.6,0,4.8,2.1,4.9,4.7C28.7,91.3,26.6,93.4,24,93.4z"></path>
</g>
</svg>