<svg xmlns="http://www.w3.org/2000/svg" xmlns:xlink="http://www.w3.org/1999/xlink" x="0px" y="0px" viewBox="0 0 100 100" style="enable-background:new 0 0 100 100;" xml:space="preserve">
<g style="display:none;">
	<path style="display:inline;fill:#252525;" d="M73,26.3c-4.1-0.4-7.6,2.3-8,6c-0.3,3.7,2.7,6.9,6.8,7.3c4.1,0.4,7.6-2.3,8-6   C80.1,30,77.1,26.7,73,26.3L73,26.3z M56.6,12.8c-0.7,2.7-2.4,5-4.9,6.3l2.4,15.6l0,6.2l3.2-28H56.6L56.6,12.8z M87.4,17.2   c-2.8-1.4-4.7-4.2-5.2-7.2L70.1,7.8c-1.4,2.5-3.7,4.3-6.5,4.9l-4.2,37.2c0,0.4-0.1,0.7-0.3,1.1c6.6,1.8,14.5,0.6,22.6-2.1   c1-0.3,1.1-2.2,1.3-3L87.4,17.2L87.4,17.2z M44,10.2c-0.3-1.9,1.2-3.6,3.3-3.6l10.7,0l0.4-3.9c0.2-1.8,1.9-3,3.7-2.7l30,5.4   C94,5.8,95.2,7.2,95,9l-5.6,36.5c4.3,1.3,6.5,5.4,4.5,10.5c4.8,1,5.5,8.5,2.2,11.6c3.6,2.4,2.9,8.8-1.5,11.5c1.6,2.8,1.6,8-4.3,9.7   c0,0-20,4.9-24.1,5.3c-8.3,0.5-10.7-1.3-22.1-1.8l-7.2-36.4l4.2-6.6c1.9-3,4-3.5,7-4.4l0-9.5L44,10.2L44,10.2z"></path>
	<path style="display:inline;fill:#01B5F0;" d="M31.7,54.8l-30,5.3l8.6,39.9l30.6,0L31.7,54.8z M24,93.4c-2.6,0-4.8-2.1-4.9-4.7   c0-2.6,2-4.7,4.7-4.7c2.6,0,4.8,2.1,4.9,4.7C28.7,91.3,26.6,93.4,24,93.4z"></path>
</g>
<g>
	<path style="fill:#252525;" d="M87.4,81.1c-5.5,0-8.3,6.7-4.4,10.6c3.9,3.9,10.6,1.1,10.6-4.4C93.6,83.9,90.8,81.1,87.4,81.1   L87.4,81.1z M50,81.1c-5.5,0-8.3,6.7-4.4,10.6c3.9,3.9,10.6,1.1,10.6-4.4C56.2,83.9,53.4,81.1,50,81.1L50,81.1z M41.2,78.6   c1.5-1.5,3.5-2.7,5.7-3.3V64.8h-18c-6.4,0-11.7,4.5-13,10.6c9.1,2.5,12.2,14,5.5,20.8c-4.9,4.9-12.8,4.9-17.6,0   c-6.9-6.9-3.5-18.6,5.8-20.9C11,65.8,19.1,58.6,29,58.6h17.9v-7.2c1,0.1,2.1,0.2,3.1,0.2c1.1,0,2.1-0.1,3.1-0.2v7.2l18,0   c9.6-0.1,17.9,7.2,19.3,16.7c9.4,2.3,12.7,14,5.8,20.9c-4.9,4.9-12.8,4.9-17.6,0c-6.8-6.8-3.6-18.3,5.5-20.8   c-1.2-6.1-6.7-10.6-13-10.6H53.1v10.5c9.3,2.4,12.5,14,5.7,20.9c-4.9,4.9-12.8,4.9-17.6,0C36.3,91.3,36.3,83.4,41.2,78.6L41.2,78.6   z M17,83c-3.9-3.9-10.6-1.1-10.6,4.4s6.7,8.3,10.6,4.4C19.5,89.4,19.5,85.4,17,83L17,83z"></path>
	<path style="fill-rule:evenodd;clip-rule:evenodd;fill:#01B5F0;" d="M50,0.2c12.9,0,23.4,10.5,23.4,23.4   c0,12.9-10.5,23.4-23.4,23.4c-12.9,0-23.4-10.5-23.4-23.4C26.6,10.6,37.1,0.2,50,0.2L50,0.2z M48.6,25.6C44.1,24,41,21.9,41,17.7   c0-3.6,2.3-6.4,6.3-7.5c0.5-0.1,0.8-0.6,0.8-1.1V8.3c0-0.6,0.6-1.2,1.2-1.2l1.9,0c0.6,0,1.2,0.6,1.2,1.2v0.4c0,0.6,0.4,1.1,1,1.1   c1.8,0.1,3.2,0.5,4.3,1c0.5,0.2,0.8,0.7,0.6,1.3l-0.7,2.7c-0.1,0.3-0.3,0.5-0.6,0.7c-0.3,0.1-0.6,0.2-0.9,0c-1.1-0.5-2.8-1-5-1   c-2.8,0-3.6,1.2-3.6,2.4c0,1.4,1.5,2.3,5.1,3.6c5.1,1.8,7.1,4.2,7.1,8.1c0,3.6-2.3,6.7-6.6,7.7c-0.5,0.1-0.8,0.6-0.8,1.1v1.2   c0,0.6-0.6,1.2-1.2,1.2l-1.9,0c-0.6,0-1.2-0.6-1.2-1.2v-0.8c0-0.6-0.5-1-1-1c-2.1-0.2-4-0.7-5.4-1.4c-0.5-0.2-0.7-0.7-0.6-1.3   l0.7-2.9c0.1-0.3,0.3-0.6,0.6-0.7c0.3-0.1,0.6-0.1,0.9,0c1.6,0.7,3.7,1.3,5.9,1.3c2.5,0,4.1-1,4.1-2.7   C53.2,27.7,51.8,26.7,48.6,25.6L48.6,25.6z"></path>
</g>
</svg>