<svg xmlns="http://www.w3.org/2000/svg" viewBox="0 0 100 100"><path d="M17.6 13.6L30.1 1.1C30.8.4 31.8 0 32.8 0h63.3a3.84 3.84 0 0 1 3.9 3.9v92.2a3.84 3.84 0 0 1-3.9 3.9H20.3a3.84 3.84 0 0 1-3.9-3.9v-9.5c2.2.6 4.6.9 7 .9h.8v4.7h68V7.8H37.1v9a3.84 3.84 0 0 1-3.9 3.9h-9v10.6h-.8c-2.4 0-4.8.3-7 .9V16.4c0-1.1.5-2.1 1.2-2.8zM49 47.7h28.3v4.7H50.7c-.4-1.7-1-3.2-1.7-4.7zm-.8 25h29.1v4.7H45.1c1.2-1.5 2.2-3.1 3.1-4.7zm3.3-12.5h25.8v4.7H51c.3-1.6.5-3.1.5-4.7z" fill="#252525"/><path d="M78.5 20.3l-15.6 2.4 5.2 5.2-6.3 7-8-6.7c-.9-.7-2.1-.7-3 0l-11.1 8.2c1.3.9 2.5 2 3.7 3.1l8.8-6.5 8.3 7c1 .9 2.4.8 3.3-.2l7.6-8.5 4.6 4.6 2.5-15.6zM21.7 61.4c-4.6-1.6-7.7-3.7-7.7-7.9 0-3.6 2.3-6.4 6.3-7.5.5-.1.8-.6.8-1.1v-.8c0-.6.6-1.2 1.2-1.2h2c.6 0 1.2.6 1.2 1.2v.4c0 .6.4 1.1 1 1.1 1.8.1 3.2.5 4.3 1 .5.2.8.8.6 1.3l-.7 2.7c-.1.3-.3.5-.6.7-.3.1-.6.2-.9 0-1.2-.5-2.8-1-5-1-2.8 0-3.7 1.2-3.7 2.5 0 1.4 1.5 2.3 5.2 3.7 5.1 1.8 7.1 4.2 7.1 8.1 0 3.6-2.3 6.7-6.7 7.8-.5.1-.8.6-.8 1.1v1.2c0 .6-.6 1.2-1.2 1.2h-2c-.6 0-1.2-.6-1.2-1.2v-.8c0-.6-.5-1-1-1-2.1-.2-4-.7-5.5-1.4-.5-.2-.7-.7-.6-1.3l.7-2.9c.1-.3.3-.6.6-.7s.6-.1.9 0c1.6.7 3.7 1.3 5.9 1.3 2.5 0 4.1-1 4.1-2.7.3-1.6-1.1-2.7-4.3-3.8zm1.7-25.5c12.9 0 23.4 10.5 23.4 23.4S36.3 82.7 23.4 82.7 0 72.3 0 59.4c0-13 10.5-23.5 23.4-23.5z" fill-rule="evenodd" fill="#01b5f0"/></svg>