<svg xmlns="http://www.w3.org/2000/svg" viewBox="0 0 100 100" fill-rule="evenodd"><g fill="#01b5f0"><path d="M73.9 17.1c2.6 2.3 6.5 2.1 8.8-.5s2.1-6.5-.5-8.8-6.5-2.1-8.8.5c-2.3 2.5-2.1 6.5.5 8.8zm9.4 35.4l6.1 15.2L100 55.2l-5.3-.9c1-5.8.8-11.6-.5-17.1-1.3-5.6-3.8-11-7.3-15.8.2-.2.4-.4.5-.6a12.4 12.4 0 0 0-1-17.6 12.4 12.4 0 0 0-17.6 1 12.4 12.4 0 0 0 1 17.6c3.2 2.9 7.6 3.9 11.7 2.7 3.2 4.2 5.4 9 6.6 14.1 1.1 4.8 1.3 9.8.5 14.7l-5.3-.8z"/><path d="M82.8 73.9c-2.3 2.6-2.1 6.5.5 8.8s6.5 2.1 8.8-.5 2.1-6.5-.5-8.8c-2.5-2.3-6.5-2.1-8.8.5zm-35.3 9.4l-15.2 6.1L44.8 100l.9-5.3c5.8 1 11.6.8 17.1-.5 5.6-1.3 11-3.8 15.8-7.3.2.2.4.4.6.5a12.4 12.4 0 0 0 17.6-1 12.4 12.4 0 0 0-1-17.6 12.4 12.4 0 0 0-17.6 1c-2.9 3.2-3.9 7.6-2.7 11.7-4.2 3.2-9 5.4-14.1 6.6-4.8 1.1-9.8 1.3-14.7.5l.8-5.3z"/><path d="M26 82.8c-2.6-2.3-6.5-2.1-8.8.5s-2.1 6.5.5 8.8 6.5 2.1 8.8-.5c2.3-2.5 2.1-6.5-.5-8.8zm-9.4-35.3l-6.1-15.2L-.1 44.8l5.3.9c-1 5.8-.8 11.6.5 17.1 1.3 5.6 3.8 11 7.3 15.8-.2.2-.4.4-.5.6a12.4 12.4 0 0 0 1 17.6 12.4 12.4 0 0 0 17.6-1 12.4 12.4 0 0 0-1-17.6c-3.2-2.9-7.6-3.9-11.7-2.7-3.2-4.2-5.4-9-6.6-14.1-1.1-4.8-1.3-9.8-.5-14.7l5.3.8z"/><path d="M17.1 26.1c2.3-2.6 2.1-6.5-.5-8.8s-6.5-2.1-8.8.5-2.1 6.5.5 8.8c2.5 2.2 6.5 2 8.8-.5zm35.3-9.5l15.2-6.1L55.1 0l-.9 5.3c-5.8-1-11.6-.8-17.1.5-5.6 1.3-11 3.8-15.8 7.3-.2-.2-.4-.4-.6-.5a12.4 12.4 0 0 0-17.6 1 12.4 12.4 0 0 0 1 17.6 12.4 12.4 0 0 0 17.6-1c2.9-3.2 3.9-7.6 2.7-11.7 4.2-3.2 9-5.4 14.1-6.6 4.8-1.1 9.8-1.3 14.7-.5l-.8 5.2z"/></g><path d="M49.9 26.5c13 0 23.5 10.5 23.5 23.5 0 12.9-10.5 23.4-23.4 23.4-13 0-23.5-10.5-23.5-23.4 0-13 10.5-23.5 23.4-23.5zm-1.7 25.6c-4.6-1.6-7.7-3.7-7.7-7.9 0-3.6 2.3-6.4 6.3-7.5.5-.1.8-.6.8-1.1v-1.2c0-.6.6-1.2 1.2-1.2h2c.6 0 1.2.6 1.2 1.2v.8c0 .6.4 1.1 1 1.1 1.8.1 3.2.5 4.3 1 .5.2.8.8.6 1.3l-.7 2.7c-.1.3-.3.5-.6.7-.3.1-.6.2-.9 0-1.2-.5-2.8-1-5-1-2.8 0-3.7 1.2-3.7 2.5 0 1.4 1.5 2.3 5.2 3.7 5.1 1.8 7.1 4.2 7.1 8.1 0 3.6-2.3 6.7-6.7 7.8-.5.1-.8.6-.8 1.1v1.2c0 .6-.6 1.2-1.2 1.2h-2c-.6 0-1.2-.6-1.2-1.2v-.8c0-.6-.5-1-1-1-2.1-.2-4-.7-5.5-1.4-.5-.2-.7-.7-.6-1.3L41 58c.1-.3.3-.6.6-.7s.6-.1.9 0c1.6.7 3.7 1.3 5.9 1.3 2.5 0 4.1-1 4.1-2.7.2-1.7-1.1-2.8-4.3-3.8z" fill="#252525"/></svg>